<?xml version="1.0" standalone="no"?>
<!DOCTYPE svg PUBLIC "-//W3C//DTD SVG 20010904//EN"
 "http://www.w3.org/TR/2001/REC-SVG-20010904/DTD/svg10.dtd">
<svg version="1.0" xmlns="http://www.w3.org/2000/svg"
 width="500.000000pt" height="500.000000pt" viewBox="0 0 500.000000 500.000000"
 preserveAspectRatio="xMidYMid meet">

<g transform="translate(0.000000,500.000000) scale(0.100000,-0.100000)"
fill="#000000" stroke="none">
<path d="M2642 3470 c-189 -195 -307 -299 -316 -277 -3 9 -5 9 -5 -1 -1 -8 -9
-10 -26 -6 -26 6 -59 -11 -49 -27 3 -5 -2 -6 -11 -3 -8 4 -28 2 -43 -4 -59
-22 -178 -51 -201 -49 -21 2 -33 -10 -72 -75 -26 -42 -64 -107 -84 -145 -21
-37 -66 -117 -100 -178 -34 -60 -74 -134 -89 -162 l-26 -53 94 74 c191 149
419 254 688 315 l93 22 64 113 c102 181 87 178 155 32 65 -140 47 -126 191
-141 64 -7 220 -42 245 -55 11 -6 7 -10 -15 -15 -139 -32 -289 -82 -282 -94 2
-5 33 -69 155 -321 36 -74 85 -129 147 -166 76 -44 128 -54 298 -54 86 0 157
3 157 6 0 6 -30 64 -205 389 -56 105 -141 264 -188 355 -205 394 -373 704
-382 707 -5 1 -92 -83 -193 -187z m-642 -376 c0 -8 -19 -13 -24 -6 -3 5 1 9 9
9 8 0 15 -2 15 -3z"/>
<path d="M2567 2613 c6 -15 -6 -17 -26 -4 -9 6 -23 4 -40 -7 -14 -10 -22 -12
-18 -4 5 6 4 12 -1 12 -8 0 -116 -38 -162 -57 -8 -3 -28 -8 -45 -10 -16 -3
-37 -9 -46 -14 -10 -5 -29 -9 -43 -9 -14 0 -28 -4 -31 -10 -3 -5 -13 -10 -22
-10 -9 0 -24 -6 -32 -13 -9 -8 -56 -26 -105 -42 -49 -16 -96 -37 -105 -47 -8
-10 -23 -18 -33 -18 -10 0 -18 -7 -18 -15 0 -8 -6 -15 -13 -15 -8 0 -22 -9
-32 -20 -9 -10 -20 -19 -24 -18 -11 3 -61 -25 -61 -34 0 -4 -7 -8 -15 -8 -8 0
-15 -6 -15 -13 0 -8 -19 -20 -42 -27 l-43 -14 40 -7 c22 -4 121 -8 221 -8 157
-1 189 2 244 20 82 27 137 65 230 160 41 42 100 99 130 125 30 26 54 52 53 56
-2 4 0 7 5 6 10 -3 59 31 65 46 3 7 -1 13 -8 13 -7 0 -11 -6 -8 -14z"/>
<path d="M2525 1916 c-23 -34 -5 -66 36 -66 41 0 61 40 34 70 -24 27 -51 25
-70 -4z"/>
<path d="M1200 1718 c-105 -261 -102 -248 -52 -248 39 0 40 1 58 50 l18 50
102 0 c98 0 103 -1 109 -22 20 -71 26 -78 66 -78 45 0 48 11 23 68 -26 60 -30
70 -91 227 l-59 150 -46 3 -46 3 -82 -203z m141 75 c37 -93 56 -153 51 -157
-7 -8 -127 -8 -135 0 -5 5 8 44 52 157 6 15 13 27 16 27 3 0 10 -12 16 -27z"/>
<path d="M2150 1695 l0 -225 40 0 40 0 0 110 c0 97 2 112 20 130 31 31 85 30
113 -2 14 -17 17 -40 17 -130 l0 -109 38 3 c34 3 37 5 40 38 2 19 1 77 -3 128
-6 84 -10 97 -35 125 -25 29 -34 32 -83 32 -45 0 -60 -5 -81 -24 l-26 -24 0
86 0 87 -40 0 -40 0 0 -225z"/>
<path d="M1713 1784 c-18 -9 -33 -20 -33 -25 0 -5 -4 -9 -10 -9 -5 0 -10 9
-10 20 0 17 -7 20 -40 20 l-40 0 0 -160 0 -160 40 0 40 0 0 98 c0 113 10 135
70 153 36 11 40 15 40 46 0 37 -10 40 -57 17z"/>
<path d="M1909 1790 c-46 -13 -78 -41 -99 -84 -79 -163 110 -313 260 -206 37
26 37 33 5 54 -24 16 -27 16 -52 -4 -35 -27 -85 -26 -120 4 -24 21 -28 32 -28
74 0 68 30 102 90 102 22 0 50 -7 63 -15 19 -14 24 -14 47 1 25 16 25 17 8 37
-37 41 -110 57 -174 37z"/>
<path d="M3520 1793 c-8 -3 -25 -15 -37 -26 l-23 -20 0 21 c0 19 -6 22 -40 22
l-41 0 3 -157 3 -158 38 -3 37 -3 0 101 c0 69 5 110 15 129 25 49 96 46 115
-4 6 -15 10 -71 10 -126 l0 -99 34 0 c43 0 46 8 46 129 0 112 10 131 73 131
51 0 60 -23 61 -150 l1 -105 38 -3 37 -3 0 116 c0 135 -12 175 -61 200 -44 23
-103 14 -139 -20 -28 -26 -28 -26 -42 -6 -23 33 -85 50 -128 34z"/>
<path d="M2529 1753 c0 -35 0 -241 1 -270 0 -8 14 -13 35 -13 l35 0 0 160 0
160 -35 0 c-34 0 -35 -1 -36 -37z"/>
<path d="M2640 1785 c0 -11 114 -290 123 -302 5 -7 26 -13 47 -13 l37 0 56
143 c31 78 59 150 63 160 5 14 0 17 -34 17 l-40 0 -28 -82 c-15 -46 -34 -99
-42 -118 -17 -40 -19 -37 -57 71 -48 137 -43 129 -86 129 -22 0 -39 -2 -39 -5z"/>
<path d="M3010 1675 c0 -142 12 -176 71 -199 52 -21 58 -20 113 9 44 23 46 24
46 5 0 -16 7 -20 35 -20 l35 0 0 160 0 160 -35 0 -35 0 0 -95 c0 -131 -18
-165 -89 -165 -50 0 -60 24 -63 145 l-3 110 -37 3 -38 3 0 -116z"/>
</g>
</svg>
